<?xml version="1.0" encoding="UTF-8" standalone="no"?>
<!DOCTYPE svg PUBLIC "-//W3C//DTD SVG 1.1//EN" "http://www.w3.org/Graphics/SVG/1.1/DTD/svg11.dtd">
<svg width="100%" height="100%" viewBox="0 0 812 815" version="1.1" xmlns="http://www.w3.org/2000/svg" xmlns:xlink="http://www.w3.org/1999/xlink" xml:space="preserve" xmlns:serif="http://www.serif.com/" style="fill-rule:evenodd;clip-rule:evenodd;stroke-linejoin:round;stroke-miterlimit:2;">
    <g transform="matrix(-0.973495,0.22871,0.22871,0.973495,593.732,544.917)">
        <path d="M-114.994,-81.589L-6.582,-81.589L9.455,-13.327L-98.96,-13.339L-114.994,-81.589Z" style="fill:white;fill-rule:nonzero;"/>
    </g>
    <g transform="matrix(0.973475,-0.228794,-0.228794,-0.973475,116.338,577.092)">
        <path d="M-9.459,13.333L98.962,13.333L115.004,81.59L6.585,81.598L-9.459,13.333Z" style="fill:white;fill-rule:nonzero;"/>
    </g>
    <g transform="matrix(1,0,0,1,505.481,665.832)">
        <path d="M0,45.453C-1.328,47.901 -3.178,49.515 -5.547,50.297C-7.918,51.078 -11.029,51.469 -14.883,51.469C-17.592,51.469 -20.482,51.351 -23.555,51.117C-26.629,50.883 -29.338,50.584 -31.682,50.219L-31.682,42.015C-25.848,42.589 -21.211,42.875 -17.773,42.875C-15.43,42.875 -13.607,42.745 -12.305,42.484C-11.004,42.224 -10.039,41.807 -9.414,41.234C-8.789,40.714 -8.398,40.036 -8.242,39.203C-8.086,38.37 -8.008,37.172 -8.008,35.608C-8.008,33.682 -8.125,32.302 -8.359,31.468C-8.594,30.636 -9.051,30.022 -9.727,29.632C-10.404,29.241 -11.551,28.917 -13.164,28.655L-23.086,27.249C-26.836,26.78 -29.416,25.335 -30.822,22.913C-32.229,20.491 -32.932,16.989 -32.932,12.405C-32.932,8.03 -32.215,4.683 -30.783,2.365C-29.35,0.049 -27.371,-1.514 -24.844,-2.322C-22.318,-3.129 -19.102,-3.533 -15.195,-3.533C-12.539,-3.533 -9.857,-3.389 -7.148,-3.104C-4.441,-2.817 -2.176,-2.465 -0.352,-2.049L-0.352,5.998C-4.102,5.373 -8.242,5.06 -12.773,5.06C-15.066,5.06 -16.875,5.166 -18.203,5.373C-19.531,5.582 -20.535,5.92 -21.211,6.389C-21.941,6.857 -22.41,7.496 -22.617,8.304C-22.826,9.111 -22.93,10.322 -22.93,11.936C-22.93,13.707 -22.826,14.983 -22.617,15.765C-22.41,16.546 -21.992,17.093 -21.367,17.405C-20.742,17.718 -19.676,17.978 -18.164,18.186L-8.164,19.515C-5.977,19.827 -4.168,20.413 -2.734,21.272C-1.303,22.132 -0.17,23.526 0.664,25.452C1.549,27.64 1.992,30.714 1.992,34.671C1.992,39.411 1.328,43.005 0,45.453M-47.539,5.685L-69.025,5.685L-69.025,19.358L-50.508,19.358L-50.508,28.03L-69.025,28.03L-69.025,42.25L-47.539,42.25L-47.539,50.844L-78.947,50.844L-78.947,-2.908L-47.539,-2.908L-47.539,5.685ZM-97.697,50.844L-107.15,50.844L-125.744,16.858L-126.057,16.858L-126.057,50.844L-135.667,50.844L-135.667,-2.908L-125.51,-2.908L-107.619,29.358L-107.307,29.358L-107.307,-2.908L-97.697,-2.908L-97.697,50.844ZM-154.416,50.844L-164.417,50.844L-164.417,-2.908L-154.416,-2.908L-154.416,50.844ZM-180.588,50.844L-215.668,50.844L-215.668,42.64L-192.854,5.685L-214.887,5.685L-214.887,-2.908L-180.822,-2.908L-180.822,5.139L-203.793,42.25L-180.588,42.25L-180.588,50.844ZM40.191,-20.512L-250.606,-20.512L-250.606,65.965L40.191,65.965L40.191,-20.512Z" style="fill:white;fill-rule:nonzero;"/>
    </g>
    <g transform="matrix(1,0,0,1,441.134,307.451)">
        <path d="M0,153.699C-16.006,153.699 -28.99,140.719 -28.99,124.704C-28.99,108.694 -16.006,95.711 0,95.711C16.014,95.711 29,108.694 29,124.704C29,140.719 16.014,153.699 0,153.699M-82.843,153.699C-98.856,153.699 -111.834,140.719 -111.834,124.704C-111.834,108.694 -98.856,95.711 -82.843,95.711C-66.828,95.711 -53.848,108.694 -53.848,124.704C-53.848,140.719 -66.828,153.699 -82.843,153.699M44.016,-14.909L-125.713,-14.909L-125.713,168.608L44.016,168.608L44.016,-14.909Z" style="fill:white;fill-rule:nonzero;"/>
    </g>
    <g transform="matrix(1,0,0,1,517.852,345.343)">
        <path d="M0,163.427L-83.686,163.427C-88.422,172.855 -102.053,179.67 -118.146,179.67C-134.231,179.67 -147.859,172.855 -152.596,163.427L-235.15,163.427L-235.15,-54.22L-262.977,-54.22L-262.977,217.647L27.82,217.647L27.82,-54.22L0,-54.22L0,163.427Z" style="fill:white;fill-rule:nonzero;"/>
    </g>
    <g transform="matrix(1,0,0,1,581.48,401.981)">
        <path d="M0,62.004L105.539,37.209L105.539,107.317L0,132.125L0,62.004ZM-35.807,161.008L-326.604,161.008L-326.604,-110.859L-298.777,-110.859L-298.777,106.788L-216.223,106.788C-211.486,116.216 -197.858,123.031 -181.773,123.031C-165.68,123.031 -152.049,116.216 -147.312,106.788L-63.627,106.788L-63.627,-110.859L-35.807,-110.859L-35.807,161.008ZM-266.059,-109.439L-96.33,-109.439L-96.33,74.078L-266.059,74.078L-266.059,-109.439ZM-371.855,139.49L-477.4,164.296L-477.4,94.171L-371.855,69.373L-371.855,139.49ZM-3.084,-143.584L-359.32,-143.584L-359.32,32.818L-510.111,68.257L-510.111,205.588L-359.32,170.136L-359.32,193.732L-3.084,193.732L-3.084,166.453L138.258,133.242L138.258,-4.087L-3.084,29.13L-3.084,-143.584Z" style="fill-rule:nonzero;"/>
    </g>
    <g transform="matrix(-1,0,0,1,782.726,-520.944)">
        <rect x="366.373" y="708.671" width="192.98" height="24.602"/>
    </g>
    <g transform="matrix(-1,0,0,1,943.545,-452.849)">
        <rect x="366.372" y="674.624" width="353.801" height="24.601"/>
    </g>
    <g transform="matrix(1,0,0,1,-143,481.048)">
        <path d="M397.876,164.272L688.673,164.272L688.673,250.749L397.876,250.749L397.876,164.272ZM365.159,283.469L381.518,283.469L381.518,308.389L457.186,308.389L457.186,283.469L626.692,283.469L626.692,308.389L702.362,308.389L702.362,283.469L721.396,283.469L721.396,131.563L365.159,131.563L365.159,283.469Z" style="fill-rule:nonzero;"/>
    </g>
    <g transform="matrix(1,0,0,1,641.46,355.969)">
        <path d="M0,9.47L-36.408,18.818L-32.049,35.796L8.209,25.457L44.314,-4.819L80.932,-8.901L78.988,-26.326L37.113,-21.655L0,9.47Z" style="fill-rule:nonzero;"/>
    </g>
    <g transform="matrix(1,0,0,1,677.454,315.47)">
        <path d="M0,-52.781L-37.102,-21.657L-73.51,-12.303L-69.152,4.676L-28.893,-5.667L7.213,-35.945L43.838,-40.038L41.896,-57.457L0,-52.781Z" style="fill-rule:nonzero;"/>
    </g>
    <g transform="matrix(1,0,0,1,116.124,378.91)">
        <path d="M0,41.539L36.186,11.194L72.885,7.104L70.937,-10.36L28.969,-5.679L-8.23,25.516L-44.719,34.885L-40.351,51.899L0,41.539Z" style="fill-rule:nonzero;"/>
    </g>
    <g transform="matrix(1,0,0,1,151.199,337.47)">
        <path d="M0,-19.151L36.707,-23.253L34.763,-40.712L-7.229,-36.025L-44.416,-4.832L-80.905,4.544L-76.536,21.561L-36.187,11.194L0,-19.151Z" style="fill-rule:nonzero;"/>
    </g>
    <g transform="matrix(-1,0,0,1,358.295,461.15)">
        <path d="M0.004,-57.988C16.018,-57.988 28.995,-45.005 28.995,-28.995C28.995,-12.98 16.018,0 0.004,0C-16.011,0 -28.991,-12.98 -28.991,-28.995C-28.991,-45.005 -16.011,-57.988 0.004,-57.988" style="fill-rule:nonzero;"/>
    </g>
    <g transform="matrix(-1,0,0,1,441.144,461.15)">
        <path d="M0.01,-57.988C16.016,-57.988 29,-45.005 29,-28.995C29,-12.98 16.016,0 0.01,0C-16.004,0 -28.99,-12.98 -28.99,-28.995C-28.99,-45.005 -16.004,-57.988 0.01,-57.988" style="fill-rule:nonzero;"/>
    </g>
    <g transform="matrix(1,0,0,1,40.7002,177.151)">
        <path d="M0,-13.104L0.832,-13.659L36.82,30.052L50.961,20.614L24.492,-29.451L25.23,-29.944L56.506,16.913L70.184,7.783L27.744,-55.802L6.025,-41.306L30.858,4.106L30.119,4.6L-2.385,-35.692L-24.566,-20.887L17.874,42.698L31.275,33.753L0,-13.104Z" style="fill-rule:nonzero;"/>
    </g>
    <g transform="matrix(1,0,0,1,105.179,159.414)">
        <path d="M0,-41.596C1.107,-42.196 2,-42.258 2.68,-41.784C3.357,-41.309 4.418,-39.862 5.856,-37.44C7.297,-35.018 10.082,-29.999 14.214,-22.38C18.346,-14.762 21.034,-9.688 22.278,-7.161C23.523,-4.633 24.158,-2.954 24.186,-2.128C24.213,-1.299 23.674,-0.586 22.566,0.014C21.459,0.615 20.566,0.678 19.889,0.203C19.209,-0.27 18.15,-1.719 16.711,-4.141C15.271,-6.562 12.485,-11.583 8.354,-19.202C4.222,-26.821 1.534,-31.892 0.289,-34.421C-0.955,-36.948 -1.592,-38.625 -1.619,-39.454C-1.646,-40.28 -1.107,-40.995 0,-41.596M-6.689,-11.044C-1.18,-0.886 3.008,6.177 5.875,10.141C8.74,14.107 12.002,16.468 15.656,17.223C19.311,17.981 24.069,16.769 29.93,13.591C35.791,10.413 39.4,7.086 40.76,3.61C42.119,0.135 41.918,-3.886 40.159,-8.452C38.398,-13.016 34.766,-20.38 29.256,-30.538C23.747,-40.696 19.549,-47.774 16.666,-51.772C13.781,-55.769 10.521,-58.129 6.884,-58.854C3.246,-59.577 -1.502,-58.351 -7.363,-55.173C-13.223,-51.994 -16.843,-48.683 -18.219,-45.241C-19.596,-41.796 -19.396,-37.776 -17.618,-33.179C-15.842,-28.58 -12.197,-21.202 -6.689,-11.044" style="fill-rule:nonzero;"/>
    </g>
    <g transform="matrix(1,0,0,1,173.536,79.5507)">
        <path d="M0,73.357L-13.688,42.475L-13.281,42.295L9.244,69.26L22.652,63.316L-8.324,-6.574L-23.155,0L-11.179,27.022L-11.788,27.292L-31.485,3.692L-45.809,10.041L-14.832,79.931L0,73.357Z" style="fill-rule:nonzero;"/>
    </g>
    <g transform="matrix(1,0,0,1,190.491,93.8542)">
        <path d="M0,9.431C2.215,12.383 4.609,13.721 7.182,13.444L14.899,12.617C16.725,12.446 18.072,12.484 18.943,12.727C19.812,12.972 20.532,13.563 21.098,14.502C21.664,15.442 22.377,17.135 23.236,19.58C24.219,22.376 24.555,24.34 24.244,25.468C24.021,26.176 23.532,26.74 22.778,27.161C22.023,27.584 20.737,28.114 18.921,28.752C16.404,29.636 12.534,30.802 7.311,32.243L11.915,45.347C14.209,45.171 16.891,44.758 19.96,44.11C23.03,43.462 25.824,42.697 28.34,41.813C32.533,40.34 35.726,38.647 37.922,36.738C40.116,34.83 41.369,31.858 41.678,27.822C41.986,23.788 40.891,18.205 38.385,11.077C36.69,6.255 34.885,2.572 32.971,0.024C31.198,-2.336 29.429,-3.796 27.663,-4.353C25.896,-4.91 23.948,-5.089 21.82,-4.891L15.33,-4.259C13.739,-4.092 12.604,-4.361 11.926,-5.065C11.246,-5.768 10.44,-7.447 9.507,-10.104C8.844,-11.991 8.428,-13.394 8.262,-14.318C8.094,-15.24 8.181,-15.998 8.523,-16.589C8.795,-17.156 9.379,-17.674 10.272,-18.146C11.168,-18.617 12.662,-19.221 14.76,-19.958C16.925,-20.719 18.889,-21.33 20.65,-21.793C22.412,-22.254 23.516,-22.524 23.959,-22.602L19.28,-35.916C18.977,-35.886 18.181,-35.803 16.895,-35.666C15.607,-35.527 13.902,-35.242 11.777,-34.811C9.652,-34.376 7.367,-33.732 4.922,-32.872C0.729,-31.399 -2.547,-29.659 -4.904,-27.652C-7.262,-25.647 -8.656,-22.742 -9.086,-18.94C-9.517,-15.138 -8.627,-10.091 -6.416,-3.801C-4.354,2.069 -2.214,6.481 0,9.431" style="fill-rule:nonzero;"/>
    </g>
    <g transform="matrix(1,0,0,1,233.839,102.341)">
        <path d="M0,-36.115L15.833,22.452L32.352,17.986L16.52,-40.581L26.709,-43.336L22.592,-58.567L-14.308,-48.592L-10.189,-33.36L0,-36.115Z" style="fill-rule:nonzero;"/>
    </g>
    <g transform="matrix(1,0,0,1,288.54,99.8898)">
        <path d="M0,-46.819C1.311,-47.062 2.252,-47.066 2.822,-46.833C3.393,-46.599 3.897,-45.807 4.336,-44.458C4.773,-43.107 5.311,-40.72 5.945,-37.298C6.592,-33.801 6.953,-31.343 7.027,-29.926C7.102,-28.508 6.913,-27.589 6.465,-27.167C6.016,-26.744 5.136,-26.412 3.824,-26.169L1.749,-25.785L-2.076,-46.434L0,-46.819ZM9.034,13.548L4.48,-11.035L6.775,-11.46L16.572,12.152L33.836,8.954L21.273,-17.987C23.095,-20.359 24.053,-23.322 24.146,-26.882C24.24,-30.44 23.77,-35.023 22.73,-40.632C21.584,-46.822 20.227,-51.6 18.662,-54.965C17.098,-58.328 14.875,-60.666 11.996,-61.98C9.115,-63.291 5.163,-63.483 0.137,-62.552L-21.715,-58.505L-7.791,16.664L9.034,13.548Z" style="fill-rule:nonzero;"/>
    </g>
    <g transform="matrix(1,0,0,1,337.917,90.7156)">
        <path d="M0,-44.449C0.299,-45.22 1.074,-45.667 2.328,-45.786C3.582,-45.906 4.428,-45.613 4.867,-44.911C5.305,-44.208 5.714,-42.461 6.09,-39.67C6.467,-36.877 7.064,-31.168 7.885,-22.54C8.703,-13.911 9.191,-8.191 9.346,-5.378C9.502,-2.564 9.43,-0.772 9.131,-0C8.832,0.773 8.056,1.218 6.803,1.337C5.548,1.456 4.702,1.165 4.264,0.462C3.824,-0.24 3.418,-1.987 3.041,-4.78C2.664,-7.571 2.066,-13.282 1.247,-21.909C0.428,-30.538 -0.06,-36.257 -0.215,-39.071C-0.37,-41.884 -0.3,-43.676 0,-44.449M-12.521,4.12C-11.438,8.892 -9.36,12.342 -6.293,14.468C-3.228,16.595 1.625,17.343 8.263,16.713C14.899,16.083 19.523,14.435 22.136,11.768C24.746,9.103 26.137,5.324 26.305,0.434C26.473,-4.454 26.012,-12.653 24.92,-24.157C23.827,-35.661 22.735,-43.817 21.647,-48.625C20.559,-53.433 18.481,-56.881 15.42,-58.972C12.355,-61.062 7.506,-61.792 0.869,-61.162C-5.769,-60.532 -10.396,-58.902 -13.01,-56.273C-15.625,-53.642 -17.016,-49.866 -17.18,-44.939C-17.345,-40.012 -16.881,-31.797 -15.788,-20.292C-14.695,-8.788 -13.607,-0.649 -12.521,4.12" style="fill-rule:nonzero;"/>
    </g>
    <g transform="matrix(1,0,0,1,408.118,88.6479)">
        <path d="M0,-45.354L2.332,-45.297C3.592,-45.267 4.436,-44.894 4.861,-44.18C5.289,-43.465 5.525,-41.719 5.568,-38.939C5.613,-36.159 5.535,-30.66 5.336,-22.439C5.137,-14.219 4.949,-8.722 4.77,-5.948C4.592,-3.173 4.271,-1.439 3.811,-0.747C3.35,-0.053 2.488,0.277 1.23,0.247L-1.104,0.19L0,-45.354ZM15.215,12.534C18.121,10.27 19.949,6.757 20.693,1.996C21.437,-2.765 21.947,-10.773 22.221,-22.03C22.494,-33.286 22.371,-41.311 21.859,-46.103C21.344,-50.895 19.689,-54.491 16.896,-56.893C14.102,-59.295 9.371,-60.577 2.707,-60.738L-16.51,-61.203L-18.361,15.222L0.855,15.687C7.521,15.849 12.307,14.797 15.215,12.534" style="fill-rule:nonzero;"/>
    </g>
    <g transform="matrix(1,0,0,1,454.419,52.7373)">
        <path d="M0,33.522C0.203,30.713 0.791,25.001 1.758,16.388C2.727,7.775 3.424,2.078 3.85,-0.708C4.273,-3.493 4.711,-5.232 5.162,-5.928C5.613,-6.621 6.463,-6.899 7.715,-6.759C8.967,-6.618 9.734,-6.158 10.021,-5.381C10.305,-4.603 10.346,-2.81 10.143,-0C9.938,2.811 9.352,8.521 8.383,17.133C7.416,25.746 6.719,31.445 6.293,34.23C5.869,37.016 5.43,38.755 4.98,39.449C4.527,40.145 3.678,40.421 2.426,40.28C1.174,40.139 0.406,39.681 0.121,38.903C-0.166,38.126 -0.205,36.333 0,33.522M-13.084,50.444C-10.521,53.156 -5.924,54.883 0.701,55.628C7.326,56.374 12.189,55.709 15.293,53.635C18.395,51.563 20.531,48.149 21.699,43.398C22.867,38.647 24.098,30.529 25.389,19.045C26.68,7.562 27.285,-0.645 27.207,-5.573C27.127,-10.502 25.801,-14.303 23.232,-16.978C20.664,-19.652 16.066,-21.362 9.441,-22.107C2.816,-22.852 -2.047,-22.206 -5.145,-20.169C-8.244,-18.131 -10.381,-14.72 -11.551,-9.932C-12.725,-5.144 -13.955,2.993 -15.246,14.476C-16.537,25.96 -17.143,34.149 -17.059,39.04C-16.975,43.932 -15.65,47.734 -13.084,50.444" style="fill-rule:nonzero;"/>
    </g>
    <g transform="matrix(1,0,0,1,502.323,54.8342)">
        <path d="M0,43.907C-0.553,44.404 -1.262,44.64 -2.123,44.62C-2.988,44.601 -4.365,44.404 -6.254,44.03C-8.871,43.513 -12.797,42.549 -18.029,41.136L-20.723,54.762C-18.658,55.776 -16.139,56.783 -13.164,57.785C-10.191,58.787 -7.396,59.548 -4.781,60.065C-0.42,60.928 3.189,61.093 6.051,60.564C8.91,60.036 11.5,58.113 13.818,54.794C16.133,51.477 18.025,46.112 19.49,38.699C20.482,33.685 20.799,29.595 20.445,26.428C20.117,23.495 19.336,21.339 18.098,19.962C16.859,18.584 15.273,17.44 13.34,16.529L7.428,13.775C5.975,13.11 5.133,12.302 4.906,11.35C4.678,10.399 4.838,8.544 5.385,5.782C5.771,3.82 6.127,2.4 6.453,1.519C6.777,0.64 7.238,0.032 7.832,-0.303C8.355,-0.654 9.121,-0.803 10.131,-0.756C11.141,-0.706 12.736,-0.467 14.916,-0.036C17.168,0.409 19.17,0.881 20.922,1.378C22.674,1.876 23.76,2.204 24.182,2.362L26.92,-11.482C26.643,-11.611 25.916,-11.944 24.738,-12.479C23.559,-13.013 21.945,-13.635 19.896,-14.343C17.846,-15.049 15.549,-15.655 13.006,-16.157C8.646,-17.02 4.941,-17.186 1.891,-16.656C-1.158,-16.126 -3.836,-14.333 -6.139,-11.277C-8.441,-8.221 -10.238,-3.423 -11.531,3.117C-12.738,9.221 -13.139,14.109 -12.73,17.775C-12.324,21.443 -10.941,23.811 -8.586,24.881L-1.518,28.09C0.141,28.871 1.281,29.588 1.908,30.24C2.533,30.892 2.852,31.768 2.861,32.864C2.871,33.961 2.625,35.781 2.123,38.324C1.547,41.231 0.84,43.093 0,43.907" style="fill-rule:nonzero;"/>
    </g>
    <g transform="matrix(1,0,0,1,571.989,118.866)">
        <path d="M0,-44.19L0.945,-43.867L-11.896,11.277L4.191,16.771L27.865,-34.674L28.707,-34.387L10.5,18.926L26.062,24.24L50.77,-48.105L26.059,-56.544L5.084,-9.225L4.244,-9.512L16.488,-59.812L-8.748,-68.43L-33.453,3.915L-18.207,9.123L0,-44.19Z" style="fill-rule:nonzero;"/>
    </g>
    <g transform="matrix(1,0,0,1,647.675,144.72)">
        <path d="M0,-44.905L0.707,-44.579L-9.791,-14.668L-15.945,-17.508L0,-44.905ZM-30.523,7.46L-23.541,-4.492L-14.764,-0.443L-19.324,12.627L-3.686,19.843L18.959,-53.902L-4.551,-64.748L-45.961,0.337L-30.523,7.46Z" style="fill-rule:nonzero;"/>
    </g>
    <g transform="matrix(1,0,0,1,692.706,165.626)">
        <path d="M0,-43.71L1.842,-42.678C3.006,-42.026 3.73,-41.429 4.021,-40.884C4.309,-40.34 4.191,-39.408 3.666,-38.09C3.139,-36.772 2.025,-34.593 0.324,-31.556C-1.414,-28.454 -2.709,-26.334 -3.559,-25.197C-4.408,-24.06 -5.141,-23.473 -5.754,-23.435C-6.371,-23.398 -7.26,-23.705 -8.422,-24.356L-10.264,-25.389L0,-43.71ZM-29.816,9.509L-17.596,-12.302L-15.561,-11.161L-23.127,13.257L-7.811,21.838L-0.24,-6.908C2.676,-7.567 5.309,-9.233 7.656,-11.909C10.004,-14.585 12.572,-18.409 15.361,-23.386C18.437,-28.878 20.449,-33.419 21.398,-37.006C22.346,-40.593 22.133,-43.812 20.76,-46.663C19.383,-49.513 16.467,-52.188 12.008,-54.686L-7.379,-65.548L-44.744,1.145L-29.816,9.509Z" style="fill-rule:nonzero;"/>
    </g>
    <g transform="matrix(1,0,0,1,714.796,126.166)">
        <path d="M0,80.914L8.432,67.974L-3.111,60.452L5.32,47.511L15.467,54.123L23.9,41.184L13.752,34.571L21.76,22.283L33.305,29.805L41.736,16.865L15.855,0L-25.881,64.049L0,80.914Z" style="fill-rule:nonzero;"/>
    </g>
    <g transform="matrix(1,0,0,1,790.796,212.883)">
        <path d="M0,-44.4C-0.838,-45.387 -2.029,-46.639 -3.58,-48.155C-5.131,-49.671 -6.947,-51.201 -9.031,-52.744C-12.604,-55.388 -15.881,-57.123 -18.865,-57.949C-21.848,-58.775 -25.033,-58.299 -28.422,-56.522C-31.812,-54.745 -35.49,-51.177 -39.457,-45.818C-43.158,-40.817 -45.609,-36.57 -46.811,-33.082C-48.01,-29.592 -47.775,-26.861 -46.102,-24.886L-41.088,-18.962C-39.922,-17.547 -39.197,-16.41 -38.91,-15.553C-38.625,-14.696 -38.711,-13.768 -39.17,-12.774C-39.631,-11.777 -40.633,-10.238 -42.174,-8.154C-43.938,-5.773 -45.373,-4.392 -46.482,-4.016C-47.193,-3.803 -47.934,-3.892 -48.707,-4.28C-49.48,-4.667 -50.641,-5.435 -52.188,-6.58C-54.33,-8.167 -57.467,-10.717 -61.592,-14.233L-69.855,-3.068C-68.422,-1.269 -66.576,0.719 -64.318,2.897C-62.059,5.074 -59.857,6.958 -57.715,8.544C-54.143,11.189 -50.951,12.882 -48.139,13.629C-45.326,14.375 -42.164,13.744 -38.648,11.736C-35.137,9.728 -31.131,5.688 -26.637,-0.385C-23.596,-4.493 -21.559,-8.054 -20.525,-11.069C-19.564,-13.859 -19.35,-16.144 -19.879,-17.918C-20.41,-19.693 -21.354,-21.405 -22.711,-23.056L-26.877,-28.074C-27.908,-29.297 -28.322,-30.388 -28.119,-31.344C-27.918,-32.301 -26.98,-33.91 -25.305,-36.173C-24.115,-37.781 -23.187,-38.913 -22.516,-39.569C-21.846,-40.225 -21.17,-40.578 -20.488,-40.626C-19.867,-40.719 -19.111,-40.526 -18.219,-40.052C-17.326,-39.575 -15.988,-38.677 -14.201,-37.355C-12.355,-35.989 -10.748,-34.706 -9.377,-33.507C-8.008,-32.308 -7.164,-31.546 -6.852,-31.223L1.545,-42.565C1.35,-42.8 0.834,-43.413 0,-44.4" style="fill-rule:nonzero;"/>
    </g>
    <g transform="matrix(1,0,0,1,324.659,708.629)">
        <path d="M0,-37.658L0,-45.705L-34.064,-45.705L-34.064,-37.111L-12.032,-37.111L-34.846,-0.156L-34.846,8.047L0.234,8.047L0.234,-0.547L-22.971,-0.547L0,-37.658Z" style="fill-rule:nonzero;"/>
    </g>
    <g transform="matrix(1,0,0,1,-143,458.6)">
        <rect x="484.064" y="204.324" width="10.001" height="53.752"/>
    </g>
    <g transform="matrix(1,0,0,1,398.175,684.408)">
        <path d="M0,10.782L-0.312,10.782L-18.203,-21.485L-28.36,-21.485L-28.36,32.267L-18.75,32.267L-18.75,-1.718L-18.437,-1.718L0.156,32.267L9.609,32.267L9.609,-21.485L0,-21.485L0,10.782Z" style="fill-rule:nonzero;"/>
    </g>
    <g transform="matrix(1,0,0,1,426.534,662.924)">
        <path d="M0,53.752L31.408,53.752L31.408,45.158L9.922,45.158L9.922,30.939L28.439,30.939L28.439,22.267L9.922,22.267L9.922,8.594L31.408,8.594L31.408,0L0,0L0,53.752Z" style="fill-rule:nonzero;"/>
    </g>
    <g transform="matrix(1,0,0,1,502.747,692.495)">
        <path d="M0,-5.39C-1.434,-6.249 -3.242,-6.835 -5.43,-7.148L-15.43,-8.476C-16.941,-8.684 -18.008,-8.945 -18.633,-9.257C-19.258,-9.57 -19.676,-10.117 -19.883,-10.898C-20.092,-11.679 -20.195,-12.955 -20.195,-14.726C-20.195,-16.34 -20.092,-17.551 -19.883,-18.359C-19.676,-19.166 -19.207,-19.805 -18.477,-20.274C-17.801,-20.743 -16.797,-21.08 -15.469,-21.289C-14.141,-21.496 -12.332,-21.602 -10.039,-21.602C-5.508,-21.602 -1.367,-21.289 2.383,-20.664L2.383,-28.711C0.559,-29.127 -1.707,-29.479 -4.414,-29.766C-7.123,-30.051 -9.805,-30.196 -12.461,-30.196C-16.367,-30.196 -19.584,-29.791 -22.109,-28.985C-24.637,-28.176 -26.615,-26.614 -28.049,-24.297C-29.48,-21.979 -30.197,-18.632 -30.197,-14.257C-30.197,-9.673 -29.494,-6.171 -28.088,-3.749C-26.682,-1.328 -24.102,0.118 -20.352,0.587L-10.43,1.993C-8.816,2.255 -7.67,2.579 -6.992,2.969C-6.316,3.36 -5.859,3.973 -5.625,4.805C-5.391,5.639 -5.273,7.02 -5.273,8.946C-5.273,10.509 -5.352,11.708 -5.508,12.541C-5.664,13.374 -6.055,14.051 -6.68,14.572C-7.305,15.145 -8.27,15.561 -9.57,15.822C-10.873,16.083 -12.695,16.213 -15.039,16.213C-18.477,16.213 -23.113,15.926 -28.947,15.353L-28.947,23.556C-26.604,23.922 -23.895,24.22 -20.82,24.455C-17.748,24.689 -14.857,24.806 -12.148,24.806C-8.295,24.806 -5.184,24.416 -2.813,23.634C-0.443,22.853 1.406,21.239 2.734,18.791C4.062,16.342 4.727,12.749 4.727,8.008C4.727,4.051 4.283,0.977 3.398,-1.21C2.564,-3.136 1.432,-4.531 0,-5.39" style="fill-rule:nonzero;"/>
    </g>
</svg>
